<?xml version="1.0" encoding="UTF-8"?><svg xmlns="http://www.w3.org/2000/svg" xmlns:xlink="http://www.w3.org/1999/xlink" stroke-dasharray="none" shape-rendering="auto" font-family="'Dialog'" width="1373" text-rendering="auto" fill-opacity="1" contentScriptType="text/ecmascript" color-interpolation="auto" color-rendering="auto" preserveAspectRatio="xMidYMid meet" font-size="12px" fill="black" stroke="black" image-rendering="auto" stroke-miterlimit="10" zoomAndPan="magnify" version="1.0" stroke-linecap="square" stroke-linejoin="miter" contentStyleType="text/css" font-style="normal" height="616" stroke-width="1" stroke-dashoffset="0" font-weight="normal" stroke-opacity="1">
    <!--Generated by the Batik Graphics2D SVG Generator-->
    <defs id="genericDefs"/>
    <g>
        <defs id="defs1">
            <clipPath clipPathUnits="userSpaceOnUse" id="clipPath1">
                <path d="M38 25 L1348 25 L1348 579 L38 579 L38 25 Z"/>
            </clipPath>
            <clipPath clipPathUnits="userSpaceOnUse" id="clipPath2">
                <path d="M-1 -1 L1374 -1 L1374 617 L-1 617 L-1 -1 Z"/>
            </clipPath>
            <clipPath clipPathUnits="userSpaceOnUse" id="clipPath3">
                <path d="M1085 30 L1344 30 L1344 74 L1085 74 L1085 30 Z"/>
            </clipPath>
            <clipPath clipPathUnits="userSpaceOnUse" id="clipPath4">
                <path d="M38 577 L1348 577 L1348 617 L38 617 L38 577 Z"/>
            </clipPath>
        </defs>
        <g font-size="14px" fill="white" text-rendering="optimizeLegibility" font-family="'Ubuntu'" stroke-linejoin="round" stroke="white" stroke-width="0" stroke-miterlimit="0">
            <rect x="39" width="1308" height="552" y="26" clip-path="url(#clipPath1)" stroke="none"/>
        </g>
        <g stroke-linecap="butt" font-size="14px" fill="rgb(204,204,204)" text-rendering="optimizeLegibility" font-family="'Ubuntu'" stroke-dasharray="3,3" stroke="rgb(204,204,204)">
            <line y2="578" fill="none" x1="39" clip-path="url(#clipPath1)" x2="1347" y1="578"/>
            <line y2="507" fill="none" x1="39" clip-path="url(#clipPath1)" x2="1347" y1="507"/>
            <line y2="436" fill="none" x1="39" clip-path="url(#clipPath1)" x2="1347" y1="436"/>
            <line y2="365" fill="none" x1="39" clip-path="url(#clipPath1)" x2="1347" y1="365"/>
            <line y2="294" fill="none" x1="39" clip-path="url(#clipPath1)" x2="1347" y1="294"/>
            <line y2="223" fill="none" x1="39" clip-path="url(#clipPath1)" x2="1347" y1="223"/>
            <line y2="152" fill="none" x1="39" clip-path="url(#clipPath1)" x2="1347" y1="152"/>
            <line y2="81" fill="none" x1="39" clip-path="url(#clipPath1)" x2="1347" y1="81"/>
            <rect x="765" y="61" clip-path="url(#clipPath1)" fill="rgb(255,127,14)" width="290" height="516" stroke="none"/>
            <rect x="765" y="61" clip-path="url(#clipPath1)" fill="none" width="290" stroke-dasharray="none" height="516" stroke="black"/>
            <rect x="329" y="435" clip-path="url(#clipPath1)" fill="rgb(31,119,180)" width="290" stroke-dasharray="none" height="142" stroke="none"/>
            <rect x="329" y="435" clip-path="url(#clipPath1)" fill="none" width="290" stroke-dasharray="none" height="142" stroke="black"/>
            <rect x="39" y="26" clip-path="url(#clipPath2)" fill="none" width="1308" stroke-dasharray="none" height="552" stroke="black"/>
            <line clip-path="url(#clipPath2)" fill="none" x1="40" x2="1346" y1="578" y2="578" stroke-dasharray="none"/>
        </g>
        <g stroke-linecap="butt" font-size="13px" text-rendering="optimizeLegibility">
            <text x="602" xml:space="preserve" y="13" clip-path="url(#clipPath2)" stroke="none">Maior tempo médio por saída</text>
            <rect x="1086" y="31" clip-path="url(#clipPath3)" fill="white" width="256" opacity="0.753" height="41" stroke="none"/>
            <polygon fill="rgb(31,119,180)" clip-path="url(#clipPath3)" points=" 1095 38 1095 46 1103 46 1103 38" stroke="none"/>
            <text x="1108" xml:space="preserve" font-size="10px" y="46" clip-path="url(#clipPath3)" stroke="none">RedeFilas.sink1-$0=0.7, $1=0.9, $2=1.5, $3=1.7</text>
            <polygon fill="rgb(255,127,14)" clip-path="url(#clipPath3)" points=" 1095 56 1095 64 1103 64 1103 56" stroke="none"/>
            <text x="1108" xml:space="preserve" font-size="10px" y="64" clip-path="url(#clipPath3)" stroke="none">RedeFilas.sink2-$0=0.8, $1=0.9, $2=0.7, $3=0.9</text>
            <line y2="578" fill="none" x1="37" clip-path="url(#clipPath2)" x2="37" y1="26"/>
            <line y2="578" fill="none" x1="1349" clip-path="url(#clipPath2)" x2="1349" y1="26"/>
            <line y2="578" fill="none" x1="33" clip-path="url(#clipPath2)" x2="37" y1="578"/>
            <line y2="578" fill="none" x1="1353" clip-path="url(#clipPath2)" x2="1349" y1="578"/>
            <text x="25" xml:space="preserve" font-size="10px" y="582" clip-path="url(#clipPath2)" stroke="none">0</text>
            <text x="1356" xml:space="preserve" font-size="10px" y="582" clip-path="url(#clipPath2)" stroke="none">0</text>
            <line y2="542" fill="none" x1="35" clip-path="url(#clipPath2)" x2="37" y1="542"/>
            <line y2="542" fill="none" x1="1351" clip-path="url(#clipPath2)" x2="1349" y1="542"/>
            <line y2="507" fill="none" x1="33" clip-path="url(#clipPath2)" x2="37" y1="507"/>
            <line y2="507" fill="none" x1="1353" clip-path="url(#clipPath2)" x2="1349" y1="507"/>
            <text x="25" xml:space="preserve" font-size="10px" y="511" clip-path="url(#clipPath2)" stroke="none">2</text>
            <text x="1356" xml:space="preserve" font-size="10px" y="511" clip-path="url(#clipPath2)" stroke="none">2</text>
            <line y2="471" fill="none" x1="35" clip-path="url(#clipPath2)" x2="37" y1="471"/>
            <line y2="471" fill="none" x1="1351" clip-path="url(#clipPath2)" x2="1349" y1="471"/>
            <line y2="436" fill="none" x1="33" clip-path="url(#clipPath2)" x2="37" y1="436"/>
            <line y2="436" fill="none" x1="1353" clip-path="url(#clipPath2)" x2="1349" y1="436"/>
            <text x="25" xml:space="preserve" font-size="10px" y="440" clip-path="url(#clipPath2)" stroke="none">4</text>
            <text x="1356" xml:space="preserve" font-size="10px" y="440" clip-path="url(#clipPath2)" stroke="none">4</text>
            <line y2="400" fill="none" x1="35" clip-path="url(#clipPath2)" x2="37" y1="400"/>
            <line y2="400" fill="none" x1="1351" clip-path="url(#clipPath2)" x2="1349" y1="400"/>
            <line y2="365" fill="none" x1="33" clip-path="url(#clipPath2)" x2="37" y1="365"/>
            <line y2="365" fill="none" x1="1353" clip-path="url(#clipPath2)" x2="1349" y1="365"/>
            <text x="25" xml:space="preserve" font-size="10px" y="369" clip-path="url(#clipPath2)" stroke="none">6</text>
            <text x="1356" xml:space="preserve" font-size="10px" y="369" clip-path="url(#clipPath2)" stroke="none">6</text>
            <line y2="329" fill="none" x1="35" clip-path="url(#clipPath2)" x2="37" y1="329"/>
            <line y2="329" fill="none" x1="1351" clip-path="url(#clipPath2)" x2="1349" y1="329"/>
            <line y2="294" fill="none" x1="33" clip-path="url(#clipPath2)" x2="37" y1="294"/>
            <line y2="294" fill="none" x1="1353" clip-path="url(#clipPath2)" x2="1349" y1="294"/>
            <text x="25" xml:space="preserve" font-size="10px" y="298" clip-path="url(#clipPath2)" stroke="none">8</text>
            <text x="1356" xml:space="preserve" font-size="10px" y="298" clip-path="url(#clipPath2)" stroke="none">8</text>
            <line y2="258" fill="none" x1="35" clip-path="url(#clipPath2)" x2="37" y1="258"/>
            <line y2="258" fill="none" x1="1351" clip-path="url(#clipPath2)" x2="1349" y1="258"/>
            <line y2="223" fill="none" x1="33" clip-path="url(#clipPath2)" x2="37" y1="223"/>
            <line y2="223" fill="none" x1="1353" clip-path="url(#clipPath2)" x2="1349" y1="223"/>
            <text x="19" xml:space="preserve" font-size="10px" y="227" clip-path="url(#clipPath2)" stroke="none">10</text>
            <text x="1356" xml:space="preserve" font-size="10px" y="227" clip-path="url(#clipPath2)" stroke="none">10</text>
            <line y2="187" fill="none" x1="35" clip-path="url(#clipPath2)" x2="37" y1="187"/>
            <line y2="187" fill="none" x1="1351" clip-path="url(#clipPath2)" x2="1349" y1="187"/>
            <line y2="152" fill="none" x1="33" clip-path="url(#clipPath2)" x2="37" y1="152"/>
            <line y2="152" fill="none" x1="1353" clip-path="url(#clipPath2)" x2="1349" y1="152"/>
            <text x="19" xml:space="preserve" font-size="10px" y="156" clip-path="url(#clipPath2)" stroke="none">12</text>
            <text x="1356" xml:space="preserve" font-size="10px" y="156" clip-path="url(#clipPath2)" stroke="none">12</text>
            <line y2="116" fill="none" x1="35" clip-path="url(#clipPath2)" x2="37" y1="116"/>
            <line y2="116" fill="none" x1="1351" clip-path="url(#clipPath2)" x2="1349" y1="116"/>
            <line y2="81" fill="none" x1="33" clip-path="url(#clipPath2)" x2="37" y1="81"/>
            <line y2="81" fill="none" x1="1353" clip-path="url(#clipPath2)" x2="1349" y1="81"/>
            <text x="19" xml:space="preserve" font-size="10px" y="85" clip-path="url(#clipPath2)" stroke="none">14</text>
            <text x="1356" xml:space="preserve" font-size="10px" y="85" clip-path="url(#clipPath2)" stroke="none">14</text>
            <line y2="45" fill="none" x1="35" clip-path="url(#clipPath2)" x2="37" y1="45"/>
            <line y2="45" fill="none" x1="1351" clip-path="url(#clipPath2)" x2="1349" y1="45"/>
            <line y2="582" fill="none" x1="329" clip-path="url(#clipPath4)" x2="1055" y1="582"/>
            <text x="329" xml:space="preserve" font-size="10px" y="593" clip-path="url(#clipPath4)" stroke="none">Ave delay</text>
            <text x="659" xml:space="preserve" font-size="10px" y="613" clip-path="url(#clipPath4)" stroke="none">Configuração</text>
        </g>
    </g>
</svg>
