<?xml version="1.0" encoding="UTF-8"?><svg xmlns="http://www.w3.org/2000/svg" xmlns:xlink="http://www.w3.org/1999/xlink" stroke-dasharray="none" shape-rendering="auto" font-family="'Dialog'" width="1373" text-rendering="auto" fill-opacity="1" contentScriptType="text/ecmascript" color-interpolation="auto" color-rendering="auto" preserveAspectRatio="xMidYMid meet" font-size="12px" fill="black" stroke="black" image-rendering="auto" stroke-miterlimit="10" zoomAndPan="magnify" version="1.0" stroke-linecap="square" stroke-linejoin="miter" contentStyleType="text/css" font-style="normal" height="616" stroke-width="1" stroke-dashoffset="0" font-weight="normal" stroke-opacity="1">
    <!--Generated by the Batik Graphics2D SVG Generator-->
    <defs id="genericDefs"/>
    <g>
        <defs id="defs1">
            <clipPath clipPathUnits="userSpaceOnUse" id="clipPath1">
                <path d="M38 25 L1348 25 L1348 540 L38 540 L38 25 Z"/>
            </clipPath>
            <clipPath clipPathUnits="userSpaceOnUse" id="clipPath2">
                <path d="M-1 -1 L1374 -1 L1374 617 L-1 617 L-1 -1 Z"/>
            </clipPath>
            <clipPath clipPathUnits="userSpaceOnUse" id="clipPath3">
                <path d="M1239 30 L1344 30 L1344 74 L1239 74 L1239 30 Z"/>
            </clipPath>
            <clipPath clipPathUnits="userSpaceOnUse" id="clipPath4">
                <path d="M38 538 L1348 538 L1348 617 L38 617 L38 538 Z"/>
            </clipPath>
        </defs>
        <g font-size="14px" fill="white" text-rendering="optimizeLegibility" font-family="'Ubuntu'" stroke-linejoin="round" stroke="white" stroke-width="0" stroke-miterlimit="0">
            <rect x="39" width="1308" height="513" y="26" clip-path="url(#clipPath1)" stroke="none"/>
        </g>
        <g stroke-linecap="butt" font-size="14px" fill="rgb(204,204,204)" text-rendering="optimizeLegibility" font-family="'Ubuntu'" stroke-dasharray="3,3" stroke="rgb(204,204,204)">
            <line y2="539" fill="none" x1="39" clip-path="url(#clipPath1)" x2="1347" y1="539"/>
            <line y2="474" fill="none" x1="39" clip-path="url(#clipPath1)" x2="1347" y1="474"/>
            <line y2="410" fill="none" x1="39" clip-path="url(#clipPath1)" x2="1347" y1="410"/>
            <line y2="346" fill="none" x1="39" clip-path="url(#clipPath1)" x2="1347" y1="346"/>
            <line y2="282" fill="none" x1="39" clip-path="url(#clipPath1)" x2="1347" y1="282"/>
            <line y2="218" fill="none" x1="39" clip-path="url(#clipPath1)" x2="1347" y1="218"/>
            <line y2="154" fill="none" x1="39" clip-path="url(#clipPath1)" x2="1347" y1="154"/>
            <line y2="90" fill="none" x1="39" clip-path="url(#clipPath1)" x2="1347" y1="90"/>
            <line y2="26" fill="none" x1="39" clip-path="url(#clipPath1)" x2="1347" y1="26"/>
            <rect x="102" y="125" clip-path="url(#clipPath1)" fill="rgb(255,127,14)" width="25" height="413" stroke="none"/>
            <rect x="102" y="125" clip-path="url(#clipPath1)" fill="none" width="25" stroke-dasharray="none" height="413" stroke="black"/>
            <rect x="182" y="242" clip-path="url(#clipPath1)" fill="rgb(255,127,14)" width="25" stroke-dasharray="none" height="296" stroke="none"/>
            <rect x="182" y="242" clip-path="url(#clipPath1)" fill="none" width="25" stroke-dasharray="none" height="296" stroke="black"/>
            <rect x="261" y="434" clip-path="url(#clipPath1)" fill="rgb(255,127,14)" width="25" stroke-dasharray="none" height="104" stroke="none"/>
            <rect x="261" y="434" clip-path="url(#clipPath1)" fill="none" width="25" stroke-dasharray="none" height="104" stroke="black"/>
            <rect x="341" y="491" clip-path="url(#clipPath1)" fill="rgb(255,127,14)" width="25" stroke-dasharray="none" height="47" stroke="none"/>
            <rect x="341" y="491" clip-path="url(#clipPath1)" fill="none" width="25" stroke-dasharray="none" height="47" stroke="black"/>
            <rect x="420" y="294" clip-path="url(#clipPath1)" fill="rgb(255,127,14)" width="25" stroke-dasharray="none" height="244" stroke="none"/>
            <rect x="420" y="294" clip-path="url(#clipPath1)" fill="none" width="25" stroke-dasharray="none" height="244" stroke="black"/>
            <rect x="500" y="297" clip-path="url(#clipPath1)" fill="rgb(255,127,14)" width="25" stroke-dasharray="none" height="241" stroke="none"/>
            <rect x="500" y="297" clip-path="url(#clipPath1)" fill="none" width="25" stroke-dasharray="none" height="241" stroke="black"/>
            <rect x="580" y="462" clip-path="url(#clipPath1)" fill="rgb(255,127,14)" width="25" stroke-dasharray="none" height="76" stroke="none"/>
            <rect x="580" y="462" clip-path="url(#clipPath1)" fill="none" width="25" stroke-dasharray="none" height="76" stroke="black"/>
            <rect x="659" y="486" clip-path="url(#clipPath1)" fill="rgb(255,127,14)" width="25" stroke-dasharray="none" height="52" stroke="none"/>
            <rect x="659" y="486" clip-path="url(#clipPath1)" fill="none" width="25" stroke-dasharray="none" height="52" stroke="black"/>
            <rect x="739" y="72" clip-path="url(#clipPath1)" fill="rgb(255,127,14)" width="25" stroke-dasharray="none" height="466" stroke="none"/>
            <rect x="739" y="72" clip-path="url(#clipPath1)" fill="none" width="25" stroke-dasharray="none" height="466" stroke="black"/>
            <rect x="818" y="269" clip-path="url(#clipPath1)" fill="rgb(255,127,14)" width="25" stroke-dasharray="none" height="269" stroke="none"/>
            <rect x="818" y="269" clip-path="url(#clipPath1)" fill="none" width="25" stroke-dasharray="none" height="269" stroke="black"/>
            <rect x="898" y="489" clip-path="url(#clipPath1)" fill="rgb(255,127,14)" width="25" stroke-dasharray="none" height="49" stroke="none"/>
            <rect x="898" y="489" clip-path="url(#clipPath1)" fill="none" width="25" stroke-dasharray="none" height="49" stroke="black"/>
            <rect x="977" y="489" clip-path="url(#clipPath1)" fill="rgb(255,127,14)" width="25" stroke-dasharray="none" height="49" stroke="none"/>
            <rect x="977" y="489" clip-path="url(#clipPath1)" fill="none" width="25" stroke-dasharray="none" height="49" stroke="black"/>
            <rect x="1057" y="355" clip-path="url(#clipPath1)" fill="rgb(255,127,14)" width="25" stroke-dasharray="none" height="183" stroke="none"/>
            <rect x="1057" y="355" clip-path="url(#clipPath1)" fill="none" width="25" stroke-dasharray="none" height="183" stroke="black"/>
            <rect x="1136" y="153" clip-path="url(#clipPath1)" fill="rgb(255,127,14)" width="25" stroke-dasharray="none" height="385" stroke="none"/>
            <rect x="1136" y="153" clip-path="url(#clipPath1)" fill="none" width="25" stroke-dasharray="none" height="385" stroke="black"/>
            <rect x="1216" y="493" clip-path="url(#clipPath1)" fill="rgb(255,127,14)" width="25" stroke-dasharray="none" height="45" stroke="none"/>
            <rect x="1216" y="493" clip-path="url(#clipPath1)" fill="none" width="25" stroke-dasharray="none" height="45" stroke="black"/>
            <rect x="1296" y="488" clip-path="url(#clipPath1)" fill="rgb(255,127,14)" width="25" stroke-dasharray="none" height="50" stroke="none"/>
            <rect x="1296" y="488" clip-path="url(#clipPath1)" fill="none" width="25" stroke-dasharray="none" height="50" stroke="black"/>
            <rect x="64" y="502" clip-path="url(#clipPath1)" fill="rgb(31,119,180)" width="25" stroke-dasharray="none" height="36" stroke="none"/>
            <rect x="64" y="502" clip-path="url(#clipPath1)" fill="none" width="25" stroke-dasharray="none" height="36" stroke="black"/>
            <rect x="144" y="502" clip-path="url(#clipPath1)" fill="rgb(31,119,180)" width="25" stroke-dasharray="none" height="36" stroke="none"/>
            <rect x="144" y="502" clip-path="url(#clipPath1)" fill="none" width="25" stroke-dasharray="none" height="36" stroke="black"/>
            <rect x="223" y="499" clip-path="url(#clipPath1)" fill="rgb(31,119,180)" width="25" stroke-dasharray="none" height="39" stroke="none"/>
            <rect x="223" y="499" clip-path="url(#clipPath1)" fill="none" width="25" stroke-dasharray="none" height="39" stroke="black"/>
            <rect x="303" y="410" clip-path="url(#clipPath1)" fill="rgb(31,119,180)" width="25" stroke-dasharray="none" height="128" stroke="none"/>
            <rect x="303" y="410" clip-path="url(#clipPath1)" fill="none" width="25" stroke-dasharray="none" height="128" stroke="black"/>
            <rect x="382" y="504" clip-path="url(#clipPath1)" fill="rgb(31,119,180)" width="25" stroke-dasharray="none" height="34" stroke="none"/>
            <rect x="382" y="504" clip-path="url(#clipPath1)" fill="none" width="25" stroke-dasharray="none" height="34" stroke="black"/>
            <rect x="462" y="517" clip-path="url(#clipPath1)" fill="rgb(31,119,180)" width="25" stroke-dasharray="none" height="21" stroke="none"/>
            <rect x="462" y="517" clip-path="url(#clipPath1)" fill="none" width="25" stroke-dasharray="none" height="21" stroke="black"/>
            <rect x="541" y="482" clip-path="url(#clipPath1)" fill="rgb(31,119,180)" width="25" stroke-dasharray="none" height="56" stroke="none"/>
            <rect x="541" y="482" clip-path="url(#clipPath1)" fill="none" width="25" stroke-dasharray="none" height="56" stroke="black"/>
            <rect x="621" y="472" clip-path="url(#clipPath1)" fill="rgb(31,119,180)" width="25" stroke-dasharray="none" height="66" stroke="none"/>
            <rect x="621" y="472" clip-path="url(#clipPath1)" fill="none" width="25" stroke-dasharray="none" height="66" stroke="black"/>
            <rect x="700" y="494" clip-path="url(#clipPath1)" fill="rgb(31,119,180)" width="25" stroke-dasharray="none" height="44" stroke="none"/>
            <rect x="700" y="494" clip-path="url(#clipPath1)" fill="none" width="25" stroke-dasharray="none" height="44" stroke="black"/>
            <rect x="780" y="503" clip-path="url(#clipPath1)" fill="rgb(31,119,180)" width="25" stroke-dasharray="none" height="35" stroke="none"/>
            <rect x="780" y="503" clip-path="url(#clipPath1)" fill="none" width="25" stroke-dasharray="none" height="35" stroke="black"/>
            <rect x="860" y="499" clip-path="url(#clipPath1)" fill="rgb(31,119,180)" width="25" stroke-dasharray="none" height="39" stroke="none"/>
            <rect x="860" y="499" clip-path="url(#clipPath1)" fill="none" width="25" stroke-dasharray="none" height="39" stroke="black"/>
            <rect x="939" y="502" clip-path="url(#clipPath1)" fill="rgb(31,119,180)" width="25" stroke-dasharray="none" height="36" stroke="none"/>
            <rect x="939" y="502" clip-path="url(#clipPath1)" fill="none" width="25" stroke-dasharray="none" height="36" stroke="black"/>
            <rect x="1019" y="513" clip-path="url(#clipPath1)" fill="rgb(31,119,180)" width="25" stroke-dasharray="none" height="25" stroke="none"/>
            <rect x="1019" y="513" clip-path="url(#clipPath1)" fill="none" width="25" stroke-dasharray="none" height="25" stroke="black"/>
            <rect x="1098" y="515" clip-path="url(#clipPath1)" fill="rgb(31,119,180)" width="25" stroke-dasharray="none" height="23" stroke="none"/>
            <rect x="1098" y="515" clip-path="url(#clipPath1)" fill="none" width="25" stroke-dasharray="none" height="23" stroke="black"/>
            <rect x="1178" y="482" clip-path="url(#clipPath1)" fill="rgb(31,119,180)" width="25" stroke-dasharray="none" height="56" stroke="none"/>
            <rect x="1178" y="482" clip-path="url(#clipPath1)" fill="none" width="25" stroke-dasharray="none" height="56" stroke="black"/>
            <rect x="1257" y="512" clip-path="url(#clipPath1)" fill="rgb(31,119,180)" width="25" stroke-dasharray="none" height="26" stroke="none"/>
            <rect x="1257" y="512" clip-path="url(#clipPath1)" fill="none" width="25" stroke-dasharray="none" height="26" stroke="black"/>
            <rect x="39" y="26" clip-path="url(#clipPath2)" fill="none" width="1308" stroke-dasharray="none" height="513" stroke="black"/>
            <line clip-path="url(#clipPath2)" fill="none" x1="40" x2="1346" y1="539" y2="539" stroke-dasharray="none"/>
        </g>
        <g stroke-linecap="butt" font-size="13px" text-rendering="optimizeLegibility">
            <text x="514" xml:space="preserve" y="13" clip-path="url(#clipPath2)" stroke="none">Tempo médio permanência por configuração em cada saída</text>
            <rect x="1240" y="31" clip-path="url(#clipPath3)" fill="white" width="102" opacity="0.753" height="41" stroke="none"/>
            <polygon fill="rgb(31,119,180)" clip-path="url(#clipPath3)" points=" 1249 38 1249 46 1257 46 1257 38" stroke="none"/>
            <text x="1262" xml:space="preserve" font-size="10px" y="46" clip-path="url(#clipPath3)" stroke="none">RedeFilas.sink1</text>
            <polygon fill="rgb(255,127,14)" clip-path="url(#clipPath3)" points=" 1249 56 1249 64 1257 64 1257 56" stroke="none"/>
            <text x="1262" xml:space="preserve" font-size="10px" y="64" clip-path="url(#clipPath3)" stroke="none">RedeFilas.sink2</text>
            <line y2="539" fill="none" x1="37" clip-path="url(#clipPath2)" x2="37" y1="26"/>
            <line y2="539" fill="none" x1="1349" clip-path="url(#clipPath2)" x2="1349" y1="26"/>
            <line y2="539" fill="none" x1="33" clip-path="url(#clipPath2)" x2="37" y1="539"/>
            <line y2="539" fill="none" x1="1353" clip-path="url(#clipPath2)" x2="1349" y1="539"/>
            <text x="25" xml:space="preserve" font-size="10px" y="543" clip-path="url(#clipPath2)" stroke="none">0</text>
            <text x="1356" xml:space="preserve" font-size="10px" y="543" clip-path="url(#clipPath2)" stroke="none">0</text>
            <line y2="506" fill="none" x1="35" clip-path="url(#clipPath2)" x2="37" y1="506"/>
            <line y2="506" fill="none" x1="1351" clip-path="url(#clipPath2)" x2="1349" y1="506"/>
            <line y2="474" fill="none" x1="33" clip-path="url(#clipPath2)" x2="37" y1="474"/>
            <line y2="474" fill="none" x1="1353" clip-path="url(#clipPath2)" x2="1349" y1="474"/>
            <text x="25" xml:space="preserve" font-size="10px" y="478" clip-path="url(#clipPath2)" stroke="none">2</text>
            <text x="1356" xml:space="preserve" font-size="10px" y="478" clip-path="url(#clipPath2)" stroke="none">2</text>
            <line y2="442" fill="none" x1="35" clip-path="url(#clipPath2)" x2="37" y1="442"/>
            <line y2="442" fill="none" x1="1351" clip-path="url(#clipPath2)" x2="1349" y1="442"/>
            <line y2="410" fill="none" x1="33" clip-path="url(#clipPath2)" x2="37" y1="410"/>
            <line y2="410" fill="none" x1="1353" clip-path="url(#clipPath2)" x2="1349" y1="410"/>
            <text x="25" xml:space="preserve" font-size="10px" y="414" clip-path="url(#clipPath2)" stroke="none">4</text>
            <text x="1356" xml:space="preserve" font-size="10px" y="414" clip-path="url(#clipPath2)" stroke="none">4</text>
            <line y2="378" fill="none" x1="35" clip-path="url(#clipPath2)" x2="37" y1="378"/>
            <line y2="378" fill="none" x1="1351" clip-path="url(#clipPath2)" x2="1349" y1="378"/>
            <line y2="346" fill="none" x1="33" clip-path="url(#clipPath2)" x2="37" y1="346"/>
            <line y2="346" fill="none" x1="1353" clip-path="url(#clipPath2)" x2="1349" y1="346"/>
            <text x="25" xml:space="preserve" font-size="10px" y="350" clip-path="url(#clipPath2)" stroke="none">6</text>
            <text x="1356" xml:space="preserve" font-size="10px" y="350" clip-path="url(#clipPath2)" stroke="none">6</text>
            <line y2="314" fill="none" x1="35" clip-path="url(#clipPath2)" x2="37" y1="314"/>
            <line y2="314" fill="none" x1="1351" clip-path="url(#clipPath2)" x2="1349" y1="314"/>
            <line y2="282" fill="none" x1="33" clip-path="url(#clipPath2)" x2="37" y1="282"/>
            <line y2="282" fill="none" x1="1353" clip-path="url(#clipPath2)" x2="1349" y1="282"/>
            <text x="25" xml:space="preserve" font-size="10px" y="286" clip-path="url(#clipPath2)" stroke="none">8</text>
            <text x="1356" xml:space="preserve" font-size="10px" y="286" clip-path="url(#clipPath2)" stroke="none">8</text>
            <line y2="250" fill="none" x1="35" clip-path="url(#clipPath2)" x2="37" y1="250"/>
            <line y2="250" fill="none" x1="1351" clip-path="url(#clipPath2)" x2="1349" y1="250"/>
            <line y2="218" fill="none" x1="33" clip-path="url(#clipPath2)" x2="37" y1="218"/>
            <line y2="218" fill="none" x1="1353" clip-path="url(#clipPath2)" x2="1349" y1="218"/>
            <text x="19" xml:space="preserve" font-size="10px" y="222" clip-path="url(#clipPath2)" stroke="none">10</text>
            <text x="1356" xml:space="preserve" font-size="10px" y="222" clip-path="url(#clipPath2)" stroke="none">10</text>
            <line y2="186" fill="none" x1="35" clip-path="url(#clipPath2)" x2="37" y1="186"/>
            <line y2="186" fill="none" x1="1351" clip-path="url(#clipPath2)" x2="1349" y1="186"/>
            <line y2="154" fill="none" x1="33" clip-path="url(#clipPath2)" x2="37" y1="154"/>
            <line y2="154" fill="none" x1="1353" clip-path="url(#clipPath2)" x2="1349" y1="154"/>
            <text x="19" xml:space="preserve" font-size="10px" y="158" clip-path="url(#clipPath2)" stroke="none">12</text>
            <text x="1356" xml:space="preserve" font-size="10px" y="158" clip-path="url(#clipPath2)" stroke="none">12</text>
            <line y2="122" fill="none" x1="35" clip-path="url(#clipPath2)" x2="37" y1="122"/>
            <line y2="122" fill="none" x1="1351" clip-path="url(#clipPath2)" x2="1349" y1="122"/>
            <line y2="90" fill="none" x1="33" clip-path="url(#clipPath2)" x2="37" y1="90"/>
            <line y2="90" fill="none" x1="1353" clip-path="url(#clipPath2)" x2="1349" y1="90"/>
            <text x="19" xml:space="preserve" font-size="10px" y="94" clip-path="url(#clipPath2)" stroke="none">14</text>
            <text x="1356" xml:space="preserve" font-size="10px" y="94" clip-path="url(#clipPath2)" stroke="none">14</text>
            <line y2="58" fill="none" x1="35" clip-path="url(#clipPath2)" x2="37" y1="58"/>
            <line y2="58" fill="none" x1="1351" clip-path="url(#clipPath2)" x2="1349" y1="58"/>
            <line y2="26" fill="none" x1="33" clip-path="url(#clipPath2)" x2="37" y1="26"/>
            <line y2="26" fill="none" x1="1353" clip-path="url(#clipPath2)" x2="1349" y1="26"/>
            <text x="19" xml:space="preserve" font-size="10px" y="30" clip-path="url(#clipPath2)" stroke="none">16</text>
            <text x="1356" xml:space="preserve" font-size="10px" y="30" clip-path="url(#clipPath2)" stroke="none">16</text>
            <line y2="543" fill="none" x1="64" clip-path="url(#clipPath4)" x2="127" y1="543"/>
            <line y2="543" fill="none" x1="144" clip-path="url(#clipPath4)" x2="207" y1="543"/>
            <line y2="543" fill="none" x1="223" clip-path="url(#clipPath4)" x2="286" y1="543"/>
            <line y2="543" fill="none" x1="303" clip-path="url(#clipPath4)" x2="366" y1="543"/>
            <line y2="543" fill="none" x1="382" clip-path="url(#clipPath4)" x2="445" y1="543"/>
            <line y2="543" fill="none" x1="462" clip-path="url(#clipPath4)" x2="525" y1="543"/>
            <line y2="543" fill="none" x1="541" clip-path="url(#clipPath4)" x2="605" y1="543"/>
            <line y2="543" fill="none" x1="621" clip-path="url(#clipPath4)" x2="684" y1="543"/>
            <line y2="543" fill="none" x1="700" clip-path="url(#clipPath4)" x2="764" y1="543"/>
            <line y2="543" fill="none" x1="780" clip-path="url(#clipPath4)" x2="843" y1="543"/>
            <line y2="543" fill="none" x1="860" clip-path="url(#clipPath4)" x2="923" y1="543"/>
            <line y2="543" fill="none" x1="939" clip-path="url(#clipPath4)" x2="1002" y1="543"/>
            <line y2="543" fill="none" x1="1019" clip-path="url(#clipPath4)" x2="1082" y1="543"/>
            <line y2="543" fill="none" x1="1098" clip-path="url(#clipPath4)" x2="1161" y1="543"/>
            <line y2="543" fill="none" x1="1178" clip-path="url(#clipPath4)" x2="1241" y1="543"/>
            <line y2="543" fill="none" x1="1257" clip-path="url(#clipPath4)" x2="1321" y1="543"/>
            <text x="64" xml:space="preserve" font-size="10px" y="554" clip-path="url(#clipPath4)" stroke="none">$0=0.7, $1=0.9, $2=0.7, $3=0.9</text>
            <text x="144" xml:space="preserve" font-size="10px" y="554" clip-path="url(#clipPath4)" stroke="none">$0=0.7, $1=0.9, $2=0.7, $3=1.7</text>
            <text x="223" xml:space="preserve" font-size="10px" y="554" clip-path="url(#clipPath4)" stroke="none">$0=0.7, $1=0.9, $2=1.5, $3=0.9</text>
            <text x="303" xml:space="preserve" font-size="10px" y="554" clip-path="url(#clipPath4)" stroke="none">$0=0.7, $1=0.9, $2=1.5, $3=1.7</text>
            <text x="382" xml:space="preserve" font-size="10px" y="554" clip-path="url(#clipPath4)" stroke="none">$0=0.7, $1=1.3, $2=0.7, $3=0.9</text>
            <text x="462" xml:space="preserve" font-size="10px" y="554" clip-path="url(#clipPath4)" stroke="none">$0=0.7, $1=1.3, $2=0.7, $3=1.7</text>
            <text x="541" xml:space="preserve" font-size="10px" y="554" clip-path="url(#clipPath4)" stroke="none">$0=0.7, $1=1.3, $2=1.5, $3=0.9</text>
            <text x="621" xml:space="preserve" font-size="10px" y="554" clip-path="url(#clipPath4)" stroke="none">$0=0.7, $1=1.3, $2=1.5, $3=1.7</text>
            <text x="700" xml:space="preserve" font-size="10px" y="554" clip-path="url(#clipPath4)" stroke="none">$0=0.8, $1=0.9, $2=0.7, $3=0.9</text>
            <text x="780" xml:space="preserve" font-size="10px" y="554" clip-path="url(#clipPath4)" stroke="none">$0=0.8, $1=0.9, $2=0.7, $3=1.7</text>
            <text x="860" xml:space="preserve" font-size="10px" y="554" clip-path="url(#clipPath4)" stroke="none">$0=0.8, $1=0.9, $2=1.5, $3=0.9</text>
            <text x="939" xml:space="preserve" font-size="10px" y="554" clip-path="url(#clipPath4)" stroke="none">$0=0.8, $1=0.9, $2=1.5, $3=1.7</text>
            <text x="1019" xml:space="preserve" font-size="10px" y="554" clip-path="url(#clipPath4)" stroke="none">$0=0.8, $1=1.3, $2=0.7, $3=0.9</text>
            <text x="1098" xml:space="preserve" font-size="10px" y="554" clip-path="url(#clipPath4)" stroke="none">$0=0.8, $1=1.3, $2=0.7, $3=1.7</text>
            <text x="1178" xml:space="preserve" font-size="10px" y="554" clip-path="url(#clipPath4)" stroke="none">$0=0.8, $1=1.3, $2=1.5, $3=0.9</text>
            <text x="1257" xml:space="preserve" font-size="10px" y="554" clip-path="url(#clipPath4)" stroke="none">$0=0.8, $1=1.3, $2=1.5, $3=1.7</text>
            <text x="659" xml:space="preserve" font-size="10px" y="613" clip-path="url(#clipPath4)" stroke="none">Configuração</text>
        </g>
    </g>
</svg>
